<svg width="106" height="60" viewBox="0 0 106 60" fill="none" xmlns="http://www.w3.org/2000/svg">
<path d="M24.1462 21.1028H24.1433C21.7453 21.1028 19.8013 22.8304 19.8013 24.9615V24.964C19.8013 27.0951 21.7453 28.8227 24.1433 28.8227H24.1462C26.5442 28.8227 28.4882 27.0951 28.4882 24.964V24.9615C28.4882 22.8304 26.5442 21.1028 24.1462 21.1028Z" fill="#AFB1B8"/>
<path d="M56.195 19.8693C56.1882 16.9093 54.8623 14.0722 52.5074 11.979C50.1525 9.88568 46.9604 8.70667 43.6297 8.69995V8.69995C40.298 8.70533 37.1045 9.88374 34.7484 11.9772C32.3922 14.0706 31.0655 16.9084 31.0587 19.8693V19.8693V36.1921C31.0587 36.1921 56.1922 33.7044 56.195 19.8718V19.8693Z" fill="#AFB1B8"/>
<path d="M11 41.5495C11.006 43.6091 11.9291 45.5828 13.5676 47.0394C15.2061 48.496 17.4267 49.317 19.7442 49.3231V49.3231C22.0612 49.317 24.2814 48.4963 25.9197 47.0403C27.5581 45.5843 28.4816 43.6112 28.4884 41.552V41.552V30.1943C28.4884 30.1943 11 31.9266 11 41.5495ZM19.7442 43.5844C19.2913 43.5844 18.8486 43.4651 18.472 43.2415C18.0955 43.0179 17.802 42.7001 17.6287 42.3282C17.4554 41.9564 17.41 41.5472 17.4984 41.1525C17.5867 40.7577 17.8048 40.3951 18.125 40.1105C18.4453 39.8259 18.8533 39.6321 19.2975 39.5536C19.7416 39.4751 20.202 39.5154 20.6205 39.6694C21.0389 39.8234 21.3965 40.0843 21.6481 40.4189C21.8997 40.7535 22.034 41.147 22.034 41.5495C22.0351 41.8173 21.9767 42.0828 21.8622 42.3306C21.7476 42.5783 21.5791 42.8036 21.3664 42.9933C21.1536 43.1831 20.9008 43.3337 20.6224 43.4364C20.3441 43.5392 20.0456 43.5921 19.7442 43.5921V43.5844Z" fill="#AFB1B8"/>
<path d="M35.5309 39.9413V44.2069H34.9655V39.9413H35.5309ZM37.3181 41.8602V42.3231H35.4079V41.8602H37.3181ZM37.6081 39.9413V40.4042H35.4079V39.9413H37.6081ZM41.5661 41.9393V42.2089C41.5661 42.5292 41.5261 42.8163 41.446 43.0702C41.3659 43.3241 41.2507 43.5399 41.1003 43.7177C40.9499 43.8954 40.7692 44.0311 40.5583 44.1249C40.3493 44.2186 40.1149 44.2655 39.8552 44.2655C39.6032 44.2655 39.3718 44.2186 39.1608 44.1249C38.9518 44.0311 38.7702 43.8954 38.6159 43.7177C38.4636 43.5399 38.3454 43.3241 38.2614 43.0702C38.1774 42.8163 38.1354 42.5292 38.1354 42.2089V41.9393C38.1354 41.619 38.1765 41.3329 38.2585 41.0809C38.3425 40.827 38.4606 40.6112 38.613 40.4335C38.7653 40.2538 38.946 40.1171 39.155 40.0233C39.3659 39.9296 39.5974 39.8827 39.8493 39.8827C40.1091 39.8827 40.3434 39.9296 40.5524 40.0233C40.7634 40.1171 40.944 40.2538 41.0944 40.4335C41.2468 40.6112 41.363 40.827 41.4431 41.0809C41.5251 41.3329 41.5661 41.619 41.5661 41.9393ZM41.0065 42.2089V41.9335C41.0065 41.6796 40.9802 41.455 40.9274 41.2596C40.8766 41.0643 40.8015 40.9003 40.7018 40.7675C40.6022 40.6346 40.4802 40.5341 40.3356 40.4657C40.1931 40.3973 40.0309 40.3632 39.8493 40.3632C39.6735 40.3632 39.5143 40.3973 39.3718 40.4657C39.2311 40.5341 39.11 40.6346 39.0085 40.7675C38.9089 40.9003 38.8317 41.0643 38.777 41.2596C38.7224 41.455 38.695 41.6796 38.695 41.9335V42.2089C38.695 42.4647 38.7224 42.6913 38.777 42.8885C38.8317 43.0839 38.9099 43.2489 39.0114 43.3837C39.1149 43.5165 39.237 43.6171 39.3776 43.6854C39.5202 43.7538 39.6794 43.788 39.8552 43.788C40.0388 43.788 40.2018 43.7538 40.3444 43.6854C40.487 43.6171 40.6071 43.5165 40.7048 43.3837C40.8044 43.2489 40.8796 43.0839 40.9304 42.8885C40.9811 42.6913 41.0065 42.4647 41.0065 42.2089ZM44.6862 43.1288C44.6862 43.0292 44.6706 42.9413 44.6393 42.8651C44.61 42.787 44.5573 42.7167 44.4811 42.6542C44.4069 42.5917 44.3034 42.5321 44.1706 42.4755C44.0397 42.4188 43.8737 42.3612 43.6725 42.3026C43.4616 42.2401 43.2712 42.1708 43.1013 42.0946C42.9313 42.0165 42.7858 41.9276 42.6647 41.828C42.5436 41.7284 42.4509 41.6141 42.3864 41.4852C42.322 41.3563 42.2897 41.2089 42.2897 41.0428C42.2897 40.8768 42.3239 40.7235 42.3923 40.5829C42.4606 40.4423 42.5583 40.3202 42.6852 40.2167C42.8141 40.1112 42.9675 40.0292 43.1452 39.9706C43.3229 39.912 43.5212 39.8827 43.7399 39.8827C44.0602 39.8827 44.3317 39.9442 44.5544 40.0673C44.779 40.1884 44.9499 40.3475 45.0671 40.5448C45.1843 40.7401 45.2429 40.9491 45.2429 41.1718H44.6804C44.6804 41.0116 44.6462 40.87 44.5778 40.7469C44.5095 40.6219 44.4059 40.5243 44.2673 40.454C44.1286 40.3817 43.9528 40.3456 43.7399 40.3456C43.5388 40.3456 43.3727 40.3759 43.2419 40.4364C43.111 40.4969 43.0134 40.579 42.9489 40.6825C42.8864 40.786 42.8552 40.9042 42.8552 41.037C42.8552 41.1268 42.8737 41.2089 42.9108 41.2831C42.9499 41.3553 43.0095 41.4227 43.0895 41.4852C43.1716 41.5477 43.2751 41.6053 43.4001 41.6581C43.527 41.7108 43.6784 41.7616 43.8542 41.8104C44.0964 41.8788 44.3054 41.955 44.4811 42.0389C44.6569 42.1229 44.8015 42.2177 44.9147 42.3231C45.03 42.4266 45.1149 42.5448 45.1696 42.6776C45.2263 42.8085 45.2546 42.9569 45.2546 43.1229C45.2546 43.2968 45.2194 43.454 45.1491 43.5946C45.0788 43.7352 44.9782 43.8553 44.8474 43.955C44.7165 44.0546 44.5593 44.1317 44.3757 44.1864C44.194 44.2391 43.9909 44.2655 43.7663 44.2655C43.569 44.2655 43.3747 44.2382 43.1833 44.1835C42.9938 44.1288 42.821 44.0468 42.6647 43.9374C42.5104 43.828 42.3864 43.6932 42.2927 43.5331C42.2009 43.371 42.155 43.1835 42.155 42.9706H42.7175C42.7175 43.1171 42.7458 43.243 42.8024 43.3485C42.8591 43.452 42.9362 43.538 43.0339 43.6063C43.1335 43.6747 43.2458 43.7255 43.3708 43.7587C43.4977 43.7899 43.6296 43.8055 43.7663 43.8055C43.9636 43.8055 44.1306 43.7782 44.2673 43.7235C44.404 43.6688 44.5075 43.5907 44.5778 43.4891C44.6501 43.3876 44.6862 43.2675 44.6862 43.1288ZM47.5515 39.9413V44.2069H46.9948V39.9413H47.5515ZM48.9225 39.9413V40.4042H45.6266V39.9413H48.9225ZM52.2653 43.7469V44.2069H50.0065V43.7469H52.2653ZM50.1208 39.9413V44.2069H49.5554V39.9413H50.1208ZM51.9665 41.7753V42.2352H50.0065V41.7753H51.9665ZM52.236 39.9413V40.4042H50.0065V39.9413H52.236ZM52.9655 39.9413H54.3776C54.6979 39.9413 54.9684 39.9901 55.1891 40.0878C55.4118 40.1854 55.5807 40.33 55.696 40.5214C55.8132 40.7108 55.8718 40.9442 55.8718 41.2216C55.8718 41.4169 55.8317 41.5956 55.7516 41.7577C55.6735 41.9178 55.5602 42.0546 55.4118 42.1678C55.2653 42.2792 55.0895 42.3622 54.8845 42.4169L54.7263 42.4784H53.3991L53.3932 42.0184H54.3952C54.5983 42.0184 54.7673 41.9833 54.902 41.913C55.0368 41.8407 55.1384 41.744 55.2067 41.6229C55.2751 41.5018 55.3093 41.368 55.3093 41.2216C55.3093 41.0575 55.277 40.9139 55.2126 40.7909C55.1481 40.6678 55.0466 40.5731 54.9079 40.5067C54.7712 40.4384 54.5944 40.4042 54.3776 40.4042H53.5309V44.2069H52.9655V39.9413ZM55.4587 44.2069L54.4216 42.2733L55.0104 42.2704L56.0622 44.1718V44.2069H55.4587ZM59.7243 42.5341H58.5847V42.0741H59.7243C59.945 42.0741 60.1237 42.0389 60.2604 41.9686C60.3972 41.8983 60.4968 41.8007 60.5593 41.6757C60.6237 41.5507 60.6559 41.4081 60.6559 41.2479C60.6559 41.1014 60.6237 40.9637 60.5593 40.8348C60.4968 40.7059 60.3972 40.6024 60.2604 40.5243C60.1237 40.4442 59.945 40.4042 59.7243 40.4042H58.7165V44.2069H58.1511V39.9413H59.7243C60.0466 39.9413 60.319 39.9969 60.5417 40.1083C60.7643 40.2196 60.9333 40.3739 61.0485 40.5712C61.1638 40.7665 61.2214 40.9901 61.2214 41.2421C61.2214 41.5155 61.1638 41.7489 61.0485 41.9423C60.9333 42.1356 60.7643 42.2831 60.5417 42.3846C60.319 42.4843 60.0466 42.5341 59.7243 42.5341ZM64.6462 43.7469V44.2069H62.3874V43.7469H64.6462ZM62.5016 39.9413V44.2069H61.9362V39.9413H62.5016ZM64.3474 41.7753V42.2352H62.3874V41.7753H64.3474ZM64.6169 39.9413V40.4042H62.3874V39.9413H64.6169ZM66.9811 39.9413V44.2069H66.4245V39.9413H66.9811ZM68.3522 39.9413V40.4042H65.0563V39.9413H68.3522ZM71.695 43.7469V44.2069H69.4362V43.7469H71.695ZM69.5505 39.9413V44.2069H68.985V39.9413H69.5505ZM71.3962 41.7753V42.2352H69.4362V41.7753H71.3962ZM71.6657 39.9413V40.4042H69.4362V39.9413H71.6657ZM72.3952 39.9413H73.8073C74.1276 39.9413 74.3981 39.9901 74.6188 40.0878C74.8415 40.1854 75.0104 40.33 75.1257 40.5214C75.2429 40.7108 75.3015 40.9442 75.3015 41.2216C75.3015 41.4169 75.2614 41.5956 75.1813 41.7577C75.1032 41.9178 74.9899 42.0546 74.8415 42.1678C74.695 42.2792 74.5192 42.3622 74.3141 42.4169L74.1559 42.4784H72.8288L72.8229 42.0184H73.8249C74.028 42.0184 74.197 41.9833 74.3317 41.913C74.4665 41.8407 74.5681 41.744 74.6364 41.6229C74.7048 41.5018 74.739 41.368 74.739 41.2216C74.739 41.0575 74.7067 40.9139 74.6423 40.7909C74.5778 40.6678 74.4763 40.5731 74.3376 40.5067C74.2009 40.4384 74.0241 40.4042 73.8073 40.4042H72.9606V44.2069H72.3952V39.9413ZM74.8884 44.2069L73.8513 42.2733L74.4401 42.2704L75.4919 44.1718V44.2069H74.8884ZM78.3659 43.1288C78.3659 43.0292 78.3503 42.9413 78.319 42.8651C78.2897 42.787 78.237 42.7167 78.1608 42.6542C78.0866 42.5917 77.9831 42.5321 77.8503 42.4755C77.7194 42.4188 77.5534 42.3612 77.3522 42.3026C77.1413 42.2401 76.9509 42.1708 76.7809 42.0946C76.611 42.0165 76.4655 41.9276 76.3444 41.828C76.2233 41.7284 76.1306 41.6141 76.0661 41.4852C76.0016 41.3563 75.9694 41.2089 75.9694 41.0428C75.9694 40.8768 76.0036 40.7235 76.072 40.5829C76.1403 40.4423 76.238 40.3202 76.3649 40.2167C76.4938 40.1112 76.6472 40.0292 76.8249 39.9706C77.0026 39.912 77.2009 39.8827 77.4196 39.8827C77.7399 39.8827 78.0114 39.9442 78.2341 40.0673C78.4587 40.1884 78.6296 40.3475 78.7468 40.5448C78.864 40.7401 78.9225 40.9491 78.9225 41.1718H78.36C78.36 41.0116 78.3259 40.87 78.2575 40.7469C78.1891 40.6219 78.0856 40.5243 77.947 40.454C77.8083 40.3817 77.6325 40.3456 77.4196 40.3456C77.2184 40.3456 77.0524 40.3759 76.9216 40.4364C76.7907 40.4969 76.6931 40.579 76.6286 40.6825C76.5661 40.786 76.5349 40.9042 76.5349 41.037C76.5349 41.1268 76.5534 41.2089 76.5905 41.2831C76.6296 41.3553 76.6891 41.4227 76.7692 41.4852C76.8513 41.5477 76.9548 41.6053 77.0798 41.6581C77.2067 41.7108 77.3581 41.7616 77.5339 41.8104C77.7761 41.8788 77.985 41.955 78.1608 42.0389C78.3366 42.1229 78.4811 42.2177 78.5944 42.3231C78.7097 42.4266 78.7946 42.5448 78.8493 42.6776C78.9059 42.8085 78.9343 42.9569 78.9343 43.1229C78.9343 43.2968 78.8991 43.454 78.8288 43.5946C78.7585 43.7352 78.6579 43.8553 78.527 43.955C78.3962 44.0546 78.239 44.1317 78.0554 44.1864C77.8737 44.2391 77.6706 44.2655 77.446 44.2655C77.2487 44.2655 77.0544 44.2382 76.863 44.1835C76.6735 44.1288 76.5007 44.0468 76.3444 43.9374C76.1901 43.828 76.0661 43.6932 75.9724 43.5331C75.8806 43.371 75.8347 43.1835 75.8347 42.9706H76.3972C76.3972 43.1171 76.4255 43.243 76.4821 43.3485C76.5388 43.452 76.6159 43.538 76.7136 43.6063C76.8132 43.6747 76.9255 43.7255 77.0505 43.7587C77.1774 43.7899 77.3093 43.8055 77.446 43.8055C77.6432 43.8055 77.8102 43.7782 77.947 43.7235C78.0837 43.6688 78.1872 43.5907 78.2575 43.4891C78.3298 43.3876 78.3659 43.2675 78.3659 43.1288Z" fill="#AFB1B8"/>
</svg>
